<?xml version="1.0" encoding="utf-8"?>
<!-- Generator: Adobe Illustrator 24.0.1, SVG Export Plug-In . SVG Version: 6.00 Build 0)  -->
<svg version="1.1" id="Layer_1" xmlns="http://www.w3.org/2000/svg" xmlns:xlink="http://www.w3.org/1999/xlink" x="0px" y="0px"
	 viewBox="0 0 73 46" style="enable-background:new 0 0 73 46;" xml:space="preserve">
<style type="text/css">
	.st0{enable-background:new    ;}
	.st1{fill:#F15A29;}
	.st2{fill:#333333;}
</style>
<g class="st0">
	<path class="st1" d="M8,25v12H2.3V16.3h5.5v3.7H8c0.5-1.2,1.2-2.2,2.3-2.9c1.1-0.7,2.4-1.1,3.9-1.1c2.2,0,3.9,0.7,5.2,2.1
		c1.3,1.4,2,3.3,2,5.7V37h-5.7V24.8c0-1.3-0.3-2.3-1-3s-1.6-1.1-2.7-1.1c-1.2,0-2.1,0.4-2.8,1.1C8.4,22.6,8.1,23.7,8,25z"/>
</g>
<g class="st0">
	<path class="st2" d="M25.7,37v-3.5l13.8-19.4H25.7V9.4h21.2v3.5L33.1,32.2h13.8V37H25.7z"/>
	<path class="st2" d="M57,25v12h-5.7V9.4h5.6v10.6h0.2c0.5-1.2,1.2-2.2,2.3-2.9s2.3-1,3.9-1c2.2,0,3.9,0.7,5.2,2.1s2,3.3,2,5.7V37
		h-5.7V24.8c0-1.3-0.3-2.3-1-3c-0.7-0.7-1.6-1.1-2.7-1.1c-1.2,0-2.1,0.4-2.9,1.1S57,23.7,57,25z"/>
</g>
</svg>
